<?xml version="1.0" standalone="no"?>
<!DOCTYPE svg PUBLIC "-//W3C//DTD SVG 20010904//EN"
 "http://www.w3.org/TR/2001/REC-SVG-20010904/DTD/svg10.dtd">
<svg version="1.0" xmlns="http://www.w3.org/2000/svg"
 width="122.000000pt" height="122.000000pt" viewBox="0 0 122.000000 122.000000"
 preserveAspectRatio="xMidYMid meet">
<metadata>
Created by potrace 1.11, written by Peter Selinger 2001-2013
</metadata>
<g transform="translate(0.000000,122.000000) scale(0.100000,-0.100000)"
fill="#000000" stroke="none">
<path d="M720 1150 c-26 -26 -25 -55 1 -81 34 -34 99 -6 99 43 0 24 -35 58
-60 58 -11 0 -29 -9 -40 -20z"/>
<path d="M197 1032 l-127 -75 2 -161 3 -160 40 -23 c56 -31 62 -19 60 112 -1
58 0 105 3 105 2 0 61 -33 130 -74 180 -104 171 -100 179 -79 3 10 15 30 25
45 l18 26 -122 72 c-68 40 -136 80 -151 90 l-28 17 93 53 c97 56 109 66 102
84 -6 15 -62 46 -82 45 -9 -1 -74 -35 -145 -77z"/>
<path d="M883 1065 c-13 -9 -23 -27 -23 -41 0 -29 32 -64 60 -64 25 0 60 34
60 58 0 46 -59 74 -97 47z"/>
<path d="M1065 982 c-70 -16 -50 -118 22 -110 33 4 62 51 46 76 -14 24 -46 39
-68 34z"/>
<path d="M877 872 c-31 -34 -16 -83 29 -96 28 -8 74 28 74 59 0 50 -69 75
-103 37z"/>
<path d="M720 780 c-38 -38 -12 -100 42 -100 25 0 58 36 58 63 0 51 -63 74
-100 37z"/>
<path d="M1040 780 c-11 -11 -20 -29 -20 -40 0 -11 9 -29 20 -40 11 -11 29
-20 40 -20 11 0 29 9 40 20 11 11 20 29 20 40 0 11 -9 29 -20 40 -11 11 -29
20 -40 20 -11 0 -29 -9 -40 -20z"/>
<path d="M560 683 c-25 -32 -25 -48 0 -73 53 -53 131 14 87 74 -21 29 -64 28
-87 -1z"/>
<path d="M1044 595 c-29 -29 -31 -56 -6 -78 27 -24 69 -21 86 6 40 60 -30 122
-80 72z"/>
<path d="M558 529 c-6 -4 -9 -72 -9 -174 l2 -167 -63 36 c-98 57 -147 80 -154
74 -11 -12 -12 -87 0 -102 14 -17 256 -156 270 -155 6 0 70 35 141 77 l130 77
2 47 c2 58 -15 67 -66 37 -20 -12 -63 -37 -96 -55 l-61 -33 1 157 c0 86 -1
164 -3 172 -2 11 -15 16 -43 15 -23 0 -45 -3 -51 -6z"/>
</g>
</svg>
